<mxfile host="app.diagrams.net" agent="Mozilla/5.0 (X11; Linux x86_64) AppleWebKit/537.36 (KHTML, like Gecko) Chrome/125.0.0.0 Safari/537.36" version="24.7.6">
  <diagram id="C5RBs43oDa-KdzZeNtuy" name="Page-1">
    <mxGraphModel dx="1362" dy="1962" grid="1" gridSize="10" guides="1" tooltips="1" connect="1" arrows="1" fold="1" page="1" pageScale="1" pageWidth="827" pageHeight="1169" math="0" shadow="0">
      <root>
        <mxCell id="WIyWlLk6GJQsqaUBKTNV-0" />
        <mxCell id="WIyWlLk6GJQsqaUBKTNV-1" parent="WIyWlLk6GJQsqaUBKTNV-0" />
        <mxCell id="2T5KfRPrGtyzERADkPeJ-16" style="edgeStyle=orthogonalEdgeStyle;rounded=0;orthogonalLoop=1;jettySize=auto;html=1;exitX=1;exitY=0.5;exitDx=0;exitDy=0;entryX=0;entryY=0.5;entryDx=0;entryDy=0;strokeWidth=4;" edge="1" parent="WIyWlLk6GJQsqaUBKTNV-1" source="2T5KfRPrGtyzERADkPeJ-0" target="2T5KfRPrGtyzERADkPeJ-1">
          <mxGeometry relative="1" as="geometry" />
        </mxCell>
        <mxCell id="2T5KfRPrGtyzERADkPeJ-17" style="edgeStyle=orthogonalEdgeStyle;rounded=0;orthogonalLoop=1;jettySize=auto;html=1;exitX=1;exitY=0.5;exitDx=0;exitDy=0;entryX=0;entryY=0.5;entryDx=0;entryDy=0;strokeWidth=4;" edge="1" parent="WIyWlLk6GJQsqaUBKTNV-1" source="2T5KfRPrGtyzERADkPeJ-0" target="2T5KfRPrGtyzERADkPeJ-3">
          <mxGeometry relative="1" as="geometry" />
        </mxCell>
        <mxCell id="2T5KfRPrGtyzERADkPeJ-18" style="edgeStyle=orthogonalEdgeStyle;rounded=0;orthogonalLoop=1;jettySize=auto;html=1;exitX=1;exitY=0.5;exitDx=0;exitDy=0;strokeWidth=4;" edge="1" parent="WIyWlLk6GJQsqaUBKTNV-1" source="2T5KfRPrGtyzERADkPeJ-0" target="2T5KfRPrGtyzERADkPeJ-4">
          <mxGeometry relative="1" as="geometry" />
        </mxCell>
        <mxCell id="2T5KfRPrGtyzERADkPeJ-19" style="edgeStyle=orthogonalEdgeStyle;rounded=0;orthogonalLoop=1;jettySize=auto;html=1;exitX=1;exitY=0.5;exitDx=0;exitDy=0;entryX=0;entryY=0.5;entryDx=0;entryDy=0;strokeWidth=4;" edge="1" parent="WIyWlLk6GJQsqaUBKTNV-1" source="2T5KfRPrGtyzERADkPeJ-0" target="2T5KfRPrGtyzERADkPeJ-5">
          <mxGeometry relative="1" as="geometry" />
        </mxCell>
        <mxCell id="2T5KfRPrGtyzERADkPeJ-20" style="edgeStyle=orthogonalEdgeStyle;rounded=0;orthogonalLoop=1;jettySize=auto;html=1;exitX=1;exitY=0.5;exitDx=0;exitDy=0;entryX=0;entryY=0.5;entryDx=0;entryDy=0;strokeWidth=4;" edge="1" parent="WIyWlLk6GJQsqaUBKTNV-1" source="2T5KfRPrGtyzERADkPeJ-0" target="2T5KfRPrGtyzERADkPeJ-6">
          <mxGeometry relative="1" as="geometry" />
        </mxCell>
        <mxCell id="2T5KfRPrGtyzERADkPeJ-0" value="query" style="rounded=0;whiteSpace=wrap;html=1;fontSize=36;strokeWidth=4;fillColor=#f8cecc;strokeColor=#b85450;" vertex="1" parent="WIyWlLk6GJQsqaUBKTNV-1">
          <mxGeometry x="40" y="280" width="160" height="80" as="geometry" />
        </mxCell>
        <mxCell id="2T5KfRPrGtyzERADkPeJ-1" value="k1" style="rounded=0;whiteSpace=wrap;html=1;fontSize=36;strokeWidth=4;fillColor=#fff2cc;strokeColor=#d6b656;" vertex="1" parent="WIyWlLk6GJQsqaUBKTNV-1">
          <mxGeometry x="320" y="40" width="160" height="80" as="geometry" />
        </mxCell>
        <mxCell id="2T5KfRPrGtyzERADkPeJ-3" value="k2" style="rounded=0;whiteSpace=wrap;html=1;fontSize=36;strokeWidth=4;fillColor=#fff2cc;strokeColor=#d6b656;" vertex="1" parent="WIyWlLk6GJQsqaUBKTNV-1">
          <mxGeometry x="320" y="160" width="160" height="80" as="geometry" />
        </mxCell>
        <mxCell id="2T5KfRPrGtyzERADkPeJ-4" value="k3" style="rounded=0;whiteSpace=wrap;html=1;fontSize=36;strokeWidth=4;fillColor=#fff2cc;strokeColor=#d6b656;" vertex="1" parent="WIyWlLk6GJQsqaUBKTNV-1">
          <mxGeometry x="320" y="280" width="160" height="80" as="geometry" />
        </mxCell>
        <mxCell id="2T5KfRPrGtyzERADkPeJ-5" value="k4" style="rounded=0;whiteSpace=wrap;html=1;fontSize=36;strokeWidth=4;fillColor=#fff2cc;strokeColor=#d6b656;" vertex="1" parent="WIyWlLk6GJQsqaUBKTNV-1">
          <mxGeometry x="320" y="400" width="160" height="80" as="geometry" />
        </mxCell>
        <mxCell id="2T5KfRPrGtyzERADkPeJ-6" value="k5" style="rounded=0;whiteSpace=wrap;html=1;fontSize=36;strokeWidth=4;fillColor=#fff2cc;strokeColor=#d6b656;" vertex="1" parent="WIyWlLk6GJQsqaUBKTNV-1">
          <mxGeometry x="320" y="520" width="160" height="80" as="geometry" />
        </mxCell>
        <mxCell id="2T5KfRPrGtyzERADkPeJ-29" style="edgeStyle=orthogonalEdgeStyle;rounded=0;orthogonalLoop=1;jettySize=auto;html=1;exitX=1;exitY=0.5;exitDx=0;exitDy=0;strokeWidth=4;" edge="1" parent="WIyWlLk6GJQsqaUBKTNV-1" source="2T5KfRPrGtyzERADkPeJ-7" target="2T5KfRPrGtyzERADkPeJ-15">
          <mxGeometry relative="1" as="geometry" />
        </mxCell>
        <mxCell id="2T5KfRPrGtyzERADkPeJ-7" value="v1" style="rounded=0;whiteSpace=wrap;html=1;fontSize=36;strokeWidth=4;fillColor=#d5e8d4;strokeColor=#82b366;" vertex="1" parent="WIyWlLk6GJQsqaUBKTNV-1">
          <mxGeometry x="480" y="40" width="160" height="80" as="geometry" />
        </mxCell>
        <mxCell id="2T5KfRPrGtyzERADkPeJ-28" style="edgeStyle=orthogonalEdgeStyle;rounded=0;orthogonalLoop=1;jettySize=auto;html=1;exitX=1;exitY=0.5;exitDx=0;exitDy=0;entryX=0;entryY=0;entryDx=0;entryDy=0;strokeWidth=4;" edge="1" parent="WIyWlLk6GJQsqaUBKTNV-1" source="2T5KfRPrGtyzERADkPeJ-8" target="2T5KfRPrGtyzERADkPeJ-15">
          <mxGeometry relative="1" as="geometry" />
        </mxCell>
        <mxCell id="2T5KfRPrGtyzERADkPeJ-8" value="v2" style="rounded=0;whiteSpace=wrap;html=1;fontSize=36;strokeWidth=4;fillColor=#f5f5f5;fontColor=#333333;strokeColor=#666666;" vertex="1" parent="WIyWlLk6GJQsqaUBKTNV-1">
          <mxGeometry x="480" y="160" width="160" height="80" as="geometry" />
        </mxCell>
        <mxCell id="2T5KfRPrGtyzERADkPeJ-23" style="edgeStyle=orthogonalEdgeStyle;rounded=0;orthogonalLoop=1;jettySize=auto;html=1;exitX=1;exitY=0.5;exitDx=0;exitDy=0;strokeWidth=4;" edge="1" parent="WIyWlLk6GJQsqaUBKTNV-1" source="2T5KfRPrGtyzERADkPeJ-9">
          <mxGeometry relative="1" as="geometry">
            <mxPoint x="760" y="320" as="targetPoint" />
          </mxGeometry>
        </mxCell>
        <mxCell id="2T5KfRPrGtyzERADkPeJ-9" value="v3" style="rounded=0;whiteSpace=wrap;html=1;fontSize=36;strokeWidth=4;fillColor=#60a917;fontColor=#ffffff;strokeColor=#2D7600;" vertex="1" parent="WIyWlLk6GJQsqaUBKTNV-1">
          <mxGeometry x="480" y="280" width="160" height="80" as="geometry" />
        </mxCell>
        <mxCell id="2T5KfRPrGtyzERADkPeJ-27" style="edgeStyle=orthogonalEdgeStyle;rounded=0;orthogonalLoop=1;jettySize=auto;html=1;exitX=1;exitY=0.5;exitDx=0;exitDy=0;entryX=0;entryY=1;entryDx=0;entryDy=0;strokeWidth=4;" edge="1" parent="WIyWlLk6GJQsqaUBKTNV-1" source="2T5KfRPrGtyzERADkPeJ-10" target="2T5KfRPrGtyzERADkPeJ-15">
          <mxGeometry relative="1" as="geometry" />
        </mxCell>
        <mxCell id="2T5KfRPrGtyzERADkPeJ-10" value="v4" style="rounded=0;whiteSpace=wrap;html=1;fontSize=36;strokeWidth=4;fillColor=#d5e8d4;gradientColor=#97d077;strokeColor=#82b366;" vertex="1" parent="WIyWlLk6GJQsqaUBKTNV-1">
          <mxGeometry x="480" y="400" width="160" height="80" as="geometry" />
        </mxCell>
        <mxCell id="2T5KfRPrGtyzERADkPeJ-26" style="edgeStyle=orthogonalEdgeStyle;rounded=0;orthogonalLoop=1;jettySize=auto;html=1;exitX=1;exitY=0.5;exitDx=0;exitDy=0;entryX=0.5;entryY=1;entryDx=0;entryDy=0;strokeWidth=4;" edge="1" parent="WIyWlLk6GJQsqaUBKTNV-1" source="2T5KfRPrGtyzERADkPeJ-11" target="2T5KfRPrGtyzERADkPeJ-15">
          <mxGeometry relative="1" as="geometry" />
        </mxCell>
        <mxCell id="2T5KfRPrGtyzERADkPeJ-11" value="v5" style="rounded=0;whiteSpace=wrap;html=1;fontSize=36;strokeWidth=4;fillColor=#d5e8d4;strokeColor=#82b366;" vertex="1" parent="WIyWlLk6GJQsqaUBKTNV-1">
          <mxGeometry x="480" y="520" width="160" height="80" as="geometry" />
        </mxCell>
        <mxCell id="2T5KfRPrGtyzERADkPeJ-12" value="keys" style="text;html=1;align=center;verticalAlign=middle;whiteSpace=wrap;rounded=0;fontSize=36;" vertex="1" parent="WIyWlLk6GJQsqaUBKTNV-1">
          <mxGeometry x="370" y="-20" width="60" height="30" as="geometry" />
        </mxCell>
        <mxCell id="2T5KfRPrGtyzERADkPeJ-13" value="values" style="text;html=1;align=center;verticalAlign=middle;whiteSpace=wrap;rounded=0;fontSize=36;" vertex="1" parent="WIyWlLk6GJQsqaUBKTNV-1">
          <mxGeometry x="530" y="-20" width="60" height="30" as="geometry" />
        </mxCell>
        <mxCell id="2T5KfRPrGtyzERADkPeJ-33" style="edgeStyle=orthogonalEdgeStyle;rounded=0;orthogonalLoop=1;jettySize=auto;html=1;exitX=1;exitY=0.5;exitDx=0;exitDy=0;strokeWidth=4;" edge="1" parent="WIyWlLk6GJQsqaUBKTNV-1" source="2T5KfRPrGtyzERADkPeJ-15" target="2T5KfRPrGtyzERADkPeJ-32">
          <mxGeometry relative="1" as="geometry" />
        </mxCell>
        <mxCell id="2T5KfRPrGtyzERADkPeJ-15" value="&lt;font style=&quot;font-size: 36px;&quot;&gt;soma&lt;/font&gt;" style="ellipse;whiteSpace=wrap;html=1;strokeWidth=4;fillColor=#ffe6cc;strokeColor=#d79b00;" vertex="1" parent="WIyWlLk6GJQsqaUBKTNV-1">
          <mxGeometry x="760" y="280" width="120" height="80" as="geometry" />
        </mxCell>
        <mxCell id="2T5KfRPrGtyzERADkPeJ-32" value="output" style="rounded=0;whiteSpace=wrap;html=1;fontSize=36;strokeWidth=4;fillColor=#dae8fc;strokeColor=#6c8ebf;" vertex="1" parent="WIyWlLk6GJQsqaUBKTNV-1">
          <mxGeometry x="960" y="280" width="160" height="80" as="geometry" />
        </mxCell>
        <mxCell id="2T5KfRPrGtyzERADkPeJ-34" value="soma ponderada" style="text;html=1;align=center;verticalAlign=middle;whiteSpace=wrap;rounded=0;fontSize=36;" vertex="1" parent="WIyWlLk6GJQsqaUBKTNV-1">
          <mxGeometry x="930" y="185" width="60" height="30" as="geometry" />
        </mxCell>
        <mxCell id="2T5KfRPrGtyzERADkPeJ-35" value="" style="endArrow=classic;html=1;rounded=0;entryX=1;entryY=0;entryDx=0;entryDy=0;strokeWidth=4;" edge="1" parent="WIyWlLk6GJQsqaUBKTNV-1" target="2T5KfRPrGtyzERADkPeJ-15">
          <mxGeometry width="50" height="50" relative="1" as="geometry">
            <mxPoint x="960" y="250" as="sourcePoint" />
            <mxPoint x="610" y="250" as="targetPoint" />
          </mxGeometry>
        </mxCell>
      </root>
    </mxGraphModel>
  </diagram>
</mxfile>
